<?xml version="1.0" encoding="UTF-8" standalone="no"?>
<svg
   xmlns:dc="http://purl.org/dc/elements/1.1/"
   xmlns:cc="http://creativecommons.org/ns#"
   xmlns:rdf="http://www.w3.org/1999/02/22-rdf-syntax-ns#"
   xmlns:svg="http://www.w3.org/2000/svg"
   xmlns="http://www.w3.org/2000/svg"
   xmlns:sodipodi="http://sodipodi.sourceforge.net/DTD/sodipodi-0.dtd"
   xmlns:inkscape="http://www.inkscape.org/namespaces/inkscape"
   width="106mm"
   height="109mm"
   viewBox="0 0 106 109"
   version="1.1"
   id="svg8"
   inkscape:export-filename="C:\Users\User\Desktop\supersnake\images\apple.svg.png"
   inkscape:export-xdpi="96"
   inkscape:export-ydpi="96"
   inkscape:version="1.0.2-2 (e86c870879, 2021-01-15)"
   sodipodi:docname="apple.svg">
  <defs
     id="defs2" />
  <sodipodi:namedview
     id="base"
     pagecolor="#ffffff"
     bordercolor="#666666"
     borderopacity="1.0"
     inkscape:pageopacity="0.0"
     inkscape:pageshadow="2"
     inkscape:zoom="2.8"
     inkscape:cx="215.07538"
     inkscape:cy="184.11462"
     inkscape:document-units="mm"
     inkscape:current-layer="layer1"
     inkscape:document-rotation="0"
     showgrid="false"
     inkscape:window-width="2560"
     inkscape:window-height="1377"
     inkscape:window-x="-8"
     inkscape:window-y="-8"
     inkscape:window-maximized="1" />
  <metadata
     id="metadata5">
    <rdf:RDF>
      <cc:Work
         rdf:about="">
        <dc:format>image/svg+xml</dc:format>
        <dc:type
           rdf:resource="http://purl.org/dc/dcmitype/StillImage" />
        <dc:title></dc:title>
      </cc:Work>
    </rdf:RDF>
  </metadata>
  <g
     inkscape:label="Warstwa 1"
     inkscape:groupmode="layer"
     id="layer1">
    <path
       id="path22"
       style="fill:#aa0000;fill-opacity:1;stroke:none;stroke-width:0.334185"
       d="m 90.925331,64.852157 c -0.0657,11.61856 -1.94695,20.557928 -7.99868,27.133978 -6.66703,7.24468 -18.072661,11.540285 -30.298761,11.542475 -12.365592,0.002 -23.710153,-4.111005 -30.745213,-10.538475 -5.596691,-5.11333 -8.049671,-11.13631 -9.112928,-21.708318 -0.812006,-8.0738 -0.331296,-24.59561 4.218101,-30.91404 9.213105,-12.79562 16.232532,-10.31955 21.983898,-16.802141 0.84831,-0.956163 6.478722,-8.605504 6.478722,-8.605504 -1.94515,-19.8688823 25.41914,-0.105379 38.694531,21.083135 6.18812,9.87671 6.81971,21.84695 6.78033,28.80889 z"
       sodipodi:nodetypes="ssssssssss" />
    <path
       id="path858"
       style="fill:#445016;fill-opacity:1;stroke:none;stroke-width:0.27454"
       d="m 76.87909,48.333957 c 0,0 -8.660057,-13.66708 -20.896377,-17.00324 -12.38606,-3.37699 -14.75669,-21.3084 -12.16521,-25.8382651 2.59148,-4.52986885 15.67702,1.475638 26.82048,7.8506871 11.143487,6.375047 8.832587,30.460948 6.241107,34.990818 z"
       sodipodi:nodetypes="sssss" />
    <path
       id="path863"
       style="fill:#de8787;fill-opacity:1;stroke:none;stroke-width:0.264583"
       d="m 34.666757,52.65034 c -3.519801,7.341063 -8.98095,16.502423 -12.369101,14.877923 -3.388185,-1.62452 -0.794445,-13.743803 2.725356,-21.084853 3.5198,-7.34107 12.464822,-9.01764 15.852999,-7.39312 3.388181,1.62452 -2.689423,6.259 -6.209218,13.60007 z"
       sodipodi:nodetypes="ssssss"
       inkscape:transform-center-x="-18.142857"
       inkscape:transform-center-y="17.764881" />
  </g>
</svg>
