<?xml version="1.0" encoding="UTF-8" standalone="no"?>
<svg
   xmlns:dc="http://purl.org/dc/elements/1.1/"
   xmlns:cc="http://creativecommons.org/ns#"
   xmlns:rdf="http://www.w3.org/1999/02/22-rdf-syntax-ns#"
   xmlns:svg="http://www.w3.org/2000/svg"
   xmlns="http://www.w3.org/2000/svg"
   xmlns:sodipodi="http://sodipodi.sourceforge.net/DTD/sodipodi-0.dtd"
   xmlns:inkscape="http://www.inkscape.org/namespaces/inkscape"
   width="100mm"
   height="100mm"
   viewBox="0 0 100 100"
   version="1.1"
   id="svg8"
   inkscape:version="1.0.2-2 (e86c870879, 2021-01-15)"
   sodipodi:docname="curve.svg">
  <defs
     id="defs2" />
  <sodipodi:namedview
     id="base"
     pagecolor="#ffffff"
     bordercolor="#666666"
     borderopacity="1.0"
     inkscape:pageopacity="0.0"
     inkscape:pageshadow="2"
     inkscape:zoom="0.7"
     inkscape:cx="66.200914"
     inkscape:cy="-98.704132"
     inkscape:document-units="mm"
     inkscape:current-layer="layer1"
     inkscape:document-rotation="0"
     showgrid="false"
     inkscape:window-width="1560"
     inkscape:window-height="1198"
     inkscape:window-x="888"
     inkscape:window-y="99"
     inkscape:window-maximized="0" />
  <metadata
     id="metadata5">
    <rdf:RDF>
      <cc:Work
         rdf:about="">
        <dc:format>image/svg+xml</dc:format>
        <dc:type
           rdf:resource="http://purl.org/dc/dcmitype/StillImage" />
        <dc:title></dc:title>
      </cc:Work>
    </rdf:RDF>
  </metadata>
  <g
     inkscape:label="Warstwa 1"
     inkscape:groupmode="layer"
     id="layer1">
    <path
       id="rect833-5"
       style="fill:#aa0000;stroke-width:0.225285"
       d="m 0,27.5 v 0 c 3.4778254,-1.478521 12.412333,-2.926886 18.511814,-8.337927 4.085469,-3.925058 8.66563,-14.5071852 9.11204,-19.23520121 v 0 L 72.5,0 C 67.861512,17.812485 63.443905,35.681972 48.044838,50.717533 31.366991,64.828337 15.624116,69.277756 0,72.5 Z"
       sodipodi:nodetypes="ccccccccc" />
    <path
       id="rect833-5-7"
       style="fill:#333333;stroke-width:0.225285"
       d="M 25.886057,6.4439717 C 25.640358,6.8747908 24.800656,9.2403438 24.357911,10.00374 22.658075,13.674834 20.525988,17.227705 18.512273,19.162354 14.95089,22.321768 10.42821,24.125685 6.5843193,25.377995 5.3228275,25.875997 1.7472947,26.875445 0.89769346,27.169271 8.6955265,41.139337 15.056809,55.236724 21.885479,66.323444 c 0.117528,0.120417 6.393338,-2.679806 6.865963,-2.931232 6.319862,-3.073966 12.733933,-7.124845 19.293396,-12.674679 5.523079,-5.392703 9.628502,-11.151092 12.843142,-17.139523 0.08951,-0.300503 3.084038,-6.495547 3.180778,-6.819199 z"
       sodipodi:nodetypes="ccccccccccc" />
    <path
       id="rect833-5-7-4"
       style="fill:#f2f2f2;stroke-width:0.225285"
       d="m 21.05941,15.995156 c -0.08575,0.12866 -0.171236,0.257964 -0.257349,0.382923 -10e-4,0.0015 -0.0021,0.0031 -0.0031,0.0046 -0.436825,0.674167 -0.414201,0.626925 -0.170532,0.240812 -0.704298,0.998419 -1.417351,1.867502 -2.11615,2.538863 -2.365692,2.098679 -5.155093,3.597021 -7.888407,4.735111 0.0091,0.08934 0.01409,0.160609 0.02377,0.252182 -0.7855745,0.310123 -0.290398,0.128998 0.01033,0.0124 L 37.98602,58.189946 c 3.318992,-2.139368 6.669241,-4.604557 10.058818,-7.472413 2.266013,-2.212522 4.290256,-4.48727 6.115389,-6.813537 z" />
  </g>
</svg>
